<svg width="50" height="50" viewBox="0 0 50 50" fill="none" xmlns="http://www.w3.org/2000/svg">
<path fill-rule="evenodd" clip-rule="evenodd" d="M11.5829 8.45933C11.9218 8.37971 12.2785 8.33783 12.6485 8.33863L41.7516 10.4174C44.3593 10.4635 46.9106 12.6259 45.6511 15.4355C45.4059 15.9826 44.2984 18.2106 42.5375 21.7163C41.8186 23.1474 41.0809 24.6123 40.3431 26.0747C39.9251 26.9032 39.9251 26.9032 39.63 27.4875C39.4949 27.7549 39.4423 27.8591 39.4106 27.9219C38.8118 29.4617 37.5473 30.6512 35.9677 31.1524L35.6602 31.25H14.6626L14.6328 31.2485L10.52 31.2474C9.33615 31.3062 8.38959 32.2527 8.33342 33.3333L8.32968 35.2919C8.4012 36.4842 9.35427 37.4362 10.4167 37.5H10.7724C11.6304 35.0725 13.9455 33.3333 16.6667 33.3333C19.388 33.3333 21.7031 35.0725 22.5611 37.5H27.4391C28.297 35.0725 30.6121 33.3333 33.3334 33.3333C36.7852 33.3333 39.5834 36.1316 39.5834 39.5833C39.5834 43.0351 36.7852 45.8333 33.3334 45.8333C30.6121 45.8333 28.297 44.0942 27.4391 41.6667H22.5611C21.7031 44.0942 19.388 45.8333 16.6667 45.8333C13.9445 45.8333 11.6287 44.0929 10.7715 41.664L10.2985 41.6633C7.00582 41.4761 4.36846 38.8415 4.16675 35.4167L4.16931 33.2301C4.33383 29.9142 6.97999 27.2616 10.3957 27.0844L8.35435 12.7946L8.33342 12.5C8.33342 11.1522 7.64771 9.55225 6.86028 8.76481C6.65612 8.56065 5.74685 8.33333 4.16675 8.33333V4.16667C6.75331 4.16667 8.62182 4.63379 9.80655 5.81853C10.5046 6.51655 11.1183 7.43528 11.5829 8.45933ZM14.8186 27.0833H34.9364C35.2143 26.932 35.4304 26.6828 35.5392 26.3796L35.6408 26.1434C35.6898 26.0465 35.6898 26.0465 35.9108 25.6091C36.2055 25.0255 36.2055 25.0255 36.623 24.1981C37.3598 22.7376 38.0965 21.2747 38.784 19.9061L38.8142 19.846C40.0186 17.4483 40.9385 15.6048 41.4446 14.5728L12.5215 12.5015L14.5629 26.7917C14.5829 26.9328 14.6848 27.0462 14.8186 27.0833ZM33.3334 41.6667C34.484 41.6667 35.4168 40.7339 35.4168 39.5833C35.4168 38.4327 34.484 37.5 33.3334 37.5C32.1828 37.5 31.2501 38.4327 31.2501 39.5833C31.2501 40.7339 32.1828 41.6667 33.3334 41.6667ZM16.6667 41.6667C17.8173 41.6667 18.7501 40.7339 18.7501 39.5833C18.7501 38.4327 17.8173 37.5 16.6667 37.5C15.5162 37.5 14.5834 38.4327 14.5834 39.5833C14.5834 40.7339 15.5162 41.6667 16.6667 41.6667Z" fill="white"/>
</svg>
