<svg width="400" height="75" viewBox="0 0 400 75" fill="none" xmlns="http://www.w3.org/2000/svg">
<path d="M400 21.6946C400 21.6946 234.451 15.2927 230.726 16.2011C223.091 18.0633 215.062 23.0599 215.084 36.6853C215.105 50.3106 224.022 54.3762 230.726 56.9832C235.036 58.6592 400 54.1899 400 54.1899L222.905 59.9628V66.2936L246.369 74.3017H211.928H191.434L208.287 66.8529V51.8622V36.6853V21.6946V6.70391L191.434 0H211.928L246.369 0.931099L222.905 6.70391V12.8492L400 21.6946Z" fill="#FFA825"/>
<path d="M208.287 36.6853V21.6946L148.231 0.931099C113.222 10.987 53.0726 25.1397 0 41.527C54.7486 51.8622 121.601 67.0391 148.231 73.3706L208.287 51.8622V36.6853Z" fill="#FFA825"/>
<path d="M261.639 20.4842C261.439 23.5006 261.146 29.002 260.76 36.9883C260.56 41.9009 260.41 47.4313 260.31 53.5788H252.551L252.337 43.4305L244.771 54.3762L236.604 43.5169L236.39 53.5788H228.674C228.574 50.2898 228.381 44.7307 228.095 36.9022C227.895 32.3919 227.53 26.9193 227.002 20.4842H239.283C239.712 21.5327 240.448 23.2277 241.491 25.569C242.291 27.2352 243.384 29.2031 244.771 31.4726C245.385 30.4959 246.514 28.4777 248.157 25.4182C248.743 24.2834 249.493 22.6388 250.407 20.4842H261.639Z" fill="#FFA825"/>
<path d="M299.255 53.7482H287.477L286.681 50.8678C286.351 50.9978 285.525 51.438 284.204 52.1892C283.358 52.7374 282.418 53.4667 281.384 54.3762L280.156 51.7557C279.912 51.2361 279.561 50.5069 279.102 49.5687L277.939 53.7482H271.695C272.613 50.1821 274.035 44.2987 275.958 36.0982C277.135 30.6121 278.118 25.4074 278.908 20.4842H291.848C292.25 22.7509 293.348 28.0278 295.143 36.3147C296.133 40.6462 297.504 46.4574 299.255 53.7482ZM285.669 46.6451C285.425 45.8797 284.994 44.638 284.377 42.9199C284.003 41.9672 283.437 40.6533 282.676 38.9788C282.346 39.816 281.829 41.1877 281.126 43.0931C280.738 44.1907 280.279 45.6845 279.748 47.5762C280.178 47.5762 281.154 47.4898 282.676 47.3162C283.595 47.1862 284.592 46.9628 285.669 46.6451Z" fill="#FFA825"/>
<path d="M332.402 47.6168C332.254 48.2119 331.98 49.3345 331.579 50.9851C331.371 51.952 331.193 53.0823 331.045 54.3762H310.913C310.838 50.8812 310.653 45.1259 310.357 37.1101C310.164 33.0055 309.815 27.3394 309.311 20.1117H324.75L323.482 48.5315C324.92 48.5315 327.078 48.3754 329.955 48.0633C330.548 48.0037 331.364 47.8547 332.402 47.6168Z" fill="#FFA825"/>
<path d="M197.579 34.3664C197.579 37.2615 196.77 39.8261 195.151 42.0603C193.721 44.0112 191.93 45.4115 189.777 46.2611C190.232 46.9695 191.356 48.4559 193.148 50.7214C194.044 51.7601 195.741 54.3527 197.579 56.0521C196.841 56.3196 195.662 57.2011 193.148 58.2868C191.388 59.089 189.452 59.7505 187.896 60.5214C187.44 59.9549 185.927 57.1881 184.355 54.8283C183.632 53.6324 182.572 51.6183 181.173 48.7866H181.126L180.89 57.0466H167.619C167.446 53.6164 167.203 47.9605 166.888 40.0778C166.747 35.4364 166.425 29.0092 165.922 20.7962C170.243 20.3399 174.188 20.1117 177.755 20.1117C190.971 20.1117 197.579 24.8633 197.579 34.3664ZM186.877 39.4641C186.877 37.9695 186.249 36.8997 184.992 36.2546C184.064 35.7825 182.902 35.578 181.503 35.6409L181.361 43.7121C182.666 43.7121 183.829 43.4212 184.85 42.8391C186.202 42.0838 186.877 40.9587 186.877 39.4641Z" fill="#363477"/>
<path d="M158.845 31.5305C158.845 37.4704 156.945 42.2287 153.145 45.8056C149.365 49.3609 144.342 51.1389 138.077 51.1389L137.702 60.7076H120.442L119.534 37.3344C119.262 31.3108 118.834 23.0387 118.25 12.5182C121.507 11.8698 126.279 11.5456 132.565 11.5456C140.229 11.5456 146.368 13.0829 150.983 16.1575C156.225 19.6504 158.845 24.7748 158.845 31.5305ZM145.846 36.8012C145.846 33.5382 143.914 31.9069 140.051 31.9069C139.591 31.9069 139.122 31.9383 138.641 32.001L138.328 42.9814C143.34 42.8142 145.846 40.7542 145.846 36.8012Z" fill="#363477"/>
</svg>
