<svg width="1074" height="200" viewBox="0 0 1074 200" fill="none" xmlns="http://www.w3.org/2000/svg">
<path d="M1074 58.25C1074 58.25 629.5 41.061 619.5 43.5C599 48.5 577.442 61.9157 577.5 98.5C577.558 135.084 601.5 146 619.5 153C631.071 157.5 1074 145.5 1074 145.5L598.5 161V177.998L661.5 199.5H569.027H514L559.25 179.5V139.25V98.5V58.25V18L514 0H569.027L661.5 2.5L598.5 18V34.5L1074 58.25Z" fill="white"/>
<path d="M559.25 98.5V58.25L398 2.5C304 29.5 142.5 67.5 0 111.5C147 139.25 326.5 180 398 197L559.25 139.25V98.5Z" fill="white"/>
<path d="M702.5 55C701.963 63.0992 701.176 77.8705 700.141 99.3136C699.603 112.504 699.201 127.353 698.932 143.859H678.099L677.524 116.611L657.209 146L635.282 116.843L634.706 143.859H613.989C613.72 135.028 613.202 120.102 612.434 99.0824C611.897 86.9723 610.919 72.2782 609.5 55H642.476C643.627 57.8154 645.603 62.3663 648.404 68.6529C650.552 73.1266 653.487 78.4104 657.209 84.504C658.858 81.8815 661.889 76.4627 666.302 68.2479C667.875 65.201 669.889 60.7851 672.344 55H702.5Z" fill="white"/>
<path d="M803.5 144.314H771.877L769.738 136.58C768.852 136.929 766.635 138.111 763.089 140.128C760.815 141.6 758.291 143.558 755.516 146L752.22 138.964C751.565 137.569 750.621 135.611 749.388 133.092L746.266 144.314H729.5C731.967 134.739 735.783 118.942 740.947 96.9237C744.108 82.1934 746.748 68.2188 748.867 55H783.613C784.692 61.0861 787.64 75.2546 792.458 97.5051C795.117 109.135 798.798 124.738 803.5 144.314ZM767.02 125.242C766.365 123.187 765.209 119.853 763.552 115.24C762.549 112.682 761.027 109.154 758.985 104.658C758.098 106.906 756.711 110.589 754.822 115.705C753.781 118.652 752.548 122.663 751.122 127.742C752.278 127.742 754.899 127.51 758.985 127.044C761.452 126.695 764.13 126.095 767.02 125.242Z" fill="white"/>
<path d="M892.5 127.851C892.102 129.449 891.365 132.463 890.29 136.895C889.732 139.491 889.254 142.526 888.856 146H834.801C834.601 136.616 834.104 121.163 833.308 99.6405C832.789 88.6198 831.854 73.4062 830.5 54H871.953L868.548 130.307C872.41 130.307 878.204 129.888 885.929 129.05C887.522 128.89 889.712 128.49 892.5 127.851Z" fill="white"/>
<path d="M530.5 92.2739C530.5 100.047 528.327 106.933 523.981 112.932C520.142 118.17 515.332 121.93 509.551 124.211C510.774 126.113 513.791 130.104 518.602 136.187C521.007 138.976 525.564 145.937 530.5 150.5C528.517 151.218 525.353 153.585 518.602 156.5C513.876 158.654 508.678 160.43 504.5 162.5C503.277 160.979 499.214 153.55 494.994 147.214C493.053 144.003 490.205 138.595 486.449 130.992H486.323L485.69 153.17H450.057C449.593 143.96 448.939 128.774 448.095 107.609C447.715 95.1466 446.85 77.8896 445.5 55.8377C457.103 54.6126 467.694 54 477.272 54C512.757 54 530.5 66.758 530.5 92.2739ZM501.766 105.961C501.766 101.948 500.079 99.0758 496.703 97.3436C494.213 96.0759 491.091 95.5268 487.335 95.6958L486.955 117.367C490.458 117.367 493.58 116.586 496.323 115.023C499.952 112.995 501.766 109.974 501.766 105.961Z" fill="#212529"/>
<path d="M426.5 84.6593C426.5 100.608 421.397 113.384 411.193 122.988C401.045 132.534 387.559 137.308 370.738 137.308L369.729 163H323.387L320.948 100.243C320.219 84.0696 319.07 61.8589 317.5 33.6114C326.247 31.8705 339.059 31 355.936 31C376.514 31 392.998 35.1276 405.39 43.3828C419.463 52.7614 426.5 66.5202 426.5 84.6593ZM391.596 98.8113C391.596 90.05 386.41 85.67 376.037 85.67C374.803 85.67 373.542 85.7543 372.252 85.9228L371.411 115.405C384.868 114.956 391.596 109.425 391.596 98.8113Z" fill="#212529"/>
</svg>
